<svg version="1.1" id="Layer_1" xmlns="http://www.w3.org/2000/svg" xmlns:xlink="http://www.w3.org/1999/xlink" x="0px" y="0px"
	 viewBox="0 0 202.4 65.6" enable-background="new 0 0 202.4 65.6" xml:space="preserve">
<g>
	<path id="XMLID_00000050664501110031617450000013572137898866314393_" fill="#00CEB5" d="M60.4,41.5l20.9,12.1L60.4,65.6V41.5z
		 M90.6,65.6l20.9-12.1L90.6,41.5V65.6z M120.8,65.6l20.9-12.1l-20.9-12.1V65.6z M151,65.6l20.9-12.1L151,41.5V65.6z M181.2,65.6
		l20.9-12.1l-20.9-12.1V65.6z"/>
	<path id="XMLID_00000150103474072595031250000013730772831268742847_" fill="#F2F2F2" d="M1,1.7l17.9,10.3L1,22.4V1.7 M0,0v24.1
		l20.9-12.1L0,0L0,0z M31.2,1.7l17.9,10.3L31.2,22.4V1.7 M30.2,0v24.1l20.9-12.1L30.2,0L30.2,0z M61.4,1.7l17.9,10.3L61.4,22.4V1.7
		 M60.4,0v24.1l20.9-12.1L60.4,0L60.4,0z M91.6,1.7l17.9,10.3L91.6,22.4V1.7 M90.6,0v24.1l20.9-12.1L90.6,0L90.6,0z M121.8,1.7
		l17.9,10.3l-17.9,10.3V1.7 M120.8,0v24.1l20.9-12.1L120.8,0L120.8,0z"/>
</g>
</svg>
