<svg xmlns="http://www.w3.org/2000/svg" viewBox="0 0 32 32">
  <path d="M25 17.85V24c0 .27-.11.52-.29.71-.14.13-3.36 3.29-8.71 3.29s-8.57-3.16-8.71-3.29C7.11 24.52 7 24.27 7 24v-6.15l7.66 3.83c.41.21.88.32 1.34.32s.93-.11 1.34-.32zm5 2.428v-7.16l.447-.224c.339-.169.553-.515.553-.894s-.214-.725-.553-.895l-14-7c-.281-.141-.613-.141-.895 0l-14 7c-.338.17-.552.516-.552.895s.214.725.553.895l14 7c.14.07.294.105.447.105s.307-.035.447-.105L28 14.118v6.16c-.595.347-1 .984-1 1.722 0 1.103.897 2 2 2s2-.897 2-2c0-.737-.405-1.375-1-1.722z"/>
</svg>
