<svg xmlns="http://www.w3.org/2000/svg" xml:space="preserve" viewBox="0 0 512 512">
  <path d="M442.2 0H69.8C31.3 0 0 31.3 0 69.8v372.4C0 480.7 31.3 512 69.8 512h125.1c1.1-8 1.9-16.7 1.9-19.2 0-13.7-.3-49.1-.3-49.1s-10.7 1.9-26.1 1.9c-38.8 0-51-24.7-56.8-38.5-7.5-18.1-17.5-26.5-27.9-33.3-6.5-4.1-8-9.1-.5-10.4 34.3-6.4 43.1 39 66 46.2 16.3 5.2 37.4 2.9 47.8-3.8 1.4-13.8 11.4-25.8 19.7-32.1-55.3-5.3-111.6-36-125.1-107.1-1-8.2-1.5-16.6-1.5-25.6 0-37.5 11.7-51.6 27.4-71.6-12-42.8 4.3-72 4.3-72s25.2-5.3 73 28.9c25.8-11.1 94.8-12 127.4-2.5 20-13.2 56.6-32 71.4-26.8 4 6.5 12.6 25.2 5.2 66.4 5.1 9 31.1 28.3 31.2 82.8-.2 12.6-1.2 24-2.9 34.3-10 63.2-66 87.3-119.9 92.8 18.5 11.7 23.9 26.4 23.9 66 0 39.7-.5 45.1-.4 54.1.1 1.4 0 10.8.2 18.6h109.4c38.6 0 69.8-31.3 69.8-69.8V69.8C512 31.3 480.7 0 442.2 0z"/>
</svg>
