<svg xmlns="http://www.w3.org/2000/svg" xml:space="preserve" viewBox="0 0 512 512">
  <path d="M442.2 0H69.8C31.3 0 0 31.3 0 69.8v372.4C0 480.7 31.3 512 69.8 512h372.4c38.6 0 69.8-31.3 69.8-69.8V69.8C512 31.3 480.7 0 442.2 0zM174.5 405.2c0 6-4.8 10.8-10.8 10.8h-46c-6 0-10.8-4.8-10.8-10.8V212.4c0-6 4.8-10.8 10.8-10.8h46c6 0 10.8 4.9 10.8 10.8v192.8zm-33.8-221.9c-24.1 0-43.6-19.5-43.6-43.6S116.6 96 140.7 96s43.6 19.5 43.6 43.6-19.5 43.7-43.6 43.7zM415 405.9c0 5.5-4.4 9.9-9.9 9.9h-49.6c-5.5 0-9.9-4.4-9.9-9.9V315.5c0-13.5 4-59.1-35.3-59.1-30.4 0-36.6 31.2-37.8 45.2v104.3c0 5.4-4.4 9.9-9.8 9.9h-47.8c-5.5 0-9.9-4.4-9.9-9.9V211.5c0-5.5 4.4-9.9 9.9-9.9h47.8c5.5 0 9.9 4.5 9.9 9.9v16.8c11.3-17 28-30 63.7-30 79.1 0 78.5 73.8 78.5 114.4l.2 93.2z"/>
</svg>
