<svg version="1.1" id="Layer_1" xmlns="http://www.w3.org/2000/svg" xmlns:xlink="http://www.w3.org/1999/xlink" x="0px" y="0px"
	 viewBox="0 0 179.7 15.7" enable-background="new 0 0 179.7 15.7" xml:space="preserve">
<path id="XMLID_00000093859317132654917770000011893759956805961121_" fill="#00CEB5" d="M161,15.7c-6.4,0-12.7-2.4-18.4-7.1
	c-10.7-8.9-23.5-8.9-34.3,0c0,0,0,0,0,0c-11.4,9.4-25.4,9.4-36.8,0c0,0,0,0,0,0c-10.7-8.9-23.5-8.9-34.2,0
	c-11.4,9.5-25.5,9.5-36.8,0c-0.4-0.4-0.5-1-0.1-1.4c0.4-0.4,1-0.5,1.4-0.1c10.7,8.9,23.5,8.9,34.3,0c11.4-9.5,25.5-9.5,36.8,0
	c0,0,0,0,0,0C83.5,16,96.3,16,107,7.1c0,0,0,0,0,0c11.4-9.4,25.4-9.4,36.8,0c10.7,8.9,23.5,8.9,34.3,0c0.4-0.4,1.1-0.3,1.4,0.1
	c0.4,0.4,0.3,1.1-0.1,1.4C173.7,13.4,167.3,15.7,161,15.7z"/>
</svg>
