<svg version="1.1" id="Layer_1" xmlns="http://www.w3.org/2000/svg" xmlns:xlink="http://www.w3.org/1999/xlink" x="0px" y="0px"
	 viewBox="0 0 207.5 96.1" enable-background="new 0 0 207.5 96.1" xml:space="preserve">
<g id="XMLID_00000124866626565786749350000005924206811222427025_">
	<path fill="#F2F2F2" d="M172.5,27.5c-0.1,0-0.3,0-0.4-0.1L138.1,1.2L104,27.4c-0.2,0.2-0.5,0.2-0.7,0L69.2,1.2L35.1,27.4
		c-0.2,0.2-0.5,0.2-0.7,0L-0.1,0.9c-0.3-0.2-0.3-0.6-0.1-0.8C0-0.2,0.4-0.2,0.6,0l34.1,26.2L68.8,0c0.2-0.2,0.5-0.2,0.7,0l34.1,26.2
		L137.7,0c0.2-0.2,0.5-0.2,0.7,0l34.1,26.2L206.6,0c0.3-0.2,0.6-0.2,0.8,0.1c0.2,0.3,0.2,0.6-0.1,0.8l-34.5,26.5
		C172.8,27.5,172.7,27.5,172.5,27.5z M172.9,50.4L207.4,24c0.3-0.2,0.3-0.6,0.1-0.8c-0.2-0.3-0.6-0.3-0.8-0.1l-34.1,26.2L138.5,23
		c-0.2-0.2-0.5-0.2-0.7,0l-34.1,26.2L69.5,23c-0.2-0.2-0.5-0.2-0.7,0L34.7,49.2L0.6,23c-0.3-0.2-0.6-0.2-0.8,0.1
		c-0.2,0.3-0.2,0.6,0.1,0.8l34.5,26.5c0.2,0.2,0.5,0.2,0.7,0l34.1-26.2l34.1,26.2c0.2,0.2,0.5,0.2,0.7,0l34.1-26.2l34.1,26.2
		c0.1,0.1,0.2,0.1,0.4,0.1S172.8,50.5,172.9,50.4z"/>
	<path fill="#00CEB5" d="M172.5,73.6c-0.1,0-0.3,0-0.4-0.1l-34.1-26.2L104,73.5c-0.2,0.2-0.5,0.2-0.7,0L69.2,47.3L35.1,73.5
		c-0.2,0.2-0.5,0.2-0.7,0L-0.1,47c-0.3-0.2-0.3-0.6-0.1-0.8c0.2-0.3,0.6-0.3,0.8-0.1l34.1,26.2l34.1-26.2c0.2-0.2,0.5-0.2,0.7,0
		l34.1,26.2l34.1-26.2c0.2-0.2,0.5-0.2,0.7,0l34.1,26.2l34.1-26.2c0.3-0.2,0.6-0.2,0.8,0.1c0.2,0.3,0.2,0.6-0.1,0.8l-34.5,26.5
		C172.8,73.6,172.7,73.6,172.5,73.6z M172.9,96.5l34.5-26.5c0.3-0.2,0.3-0.6,0.1-0.8c-0.2-0.3-0.6-0.3-0.8-0.1l-34.1,26.2
		l-34.1-26.2c-0.2-0.2-0.5-0.2-0.7,0l-34.1,26.2L69.5,69.1c-0.2-0.2-0.5-0.2-0.7,0L34.7,95.3L0.6,69.1C0.4,68.9,0,69-0.2,69.2
		c-0.2,0.3-0.2,0.6,0.1,0.8l34.5,26.5c0.2,0.2,0.5,0.2,0.7,0l34.1-26.2l34.1,26.2c0.2,0.2,0.5,0.2,0.7,0l34.1-26.2l34.1,26.2
		c0.1,0.1,0.2,0.1,0.4,0.1S172.8,96.6,172.9,96.5z"/>
</g>
</svg>
